<svg width="20" height="20" viewBox="0 0 20 20" fill="none" xmlns="http://www.w3.org/2000/svg">
<path d="M10.3983 0.753418C5.17444 0.753418 0.938738 4.98912 0.938738 10.213C0.938738 15.4369 5.17444 19.6726 10.3983 19.6726C15.6222 19.6726 19.8579 15.4369 19.8579 10.213C19.8579 4.98912 15.6222 0.753418 10.3983 0.753418ZM10.3983 18.0679C6.06128 18.0679 2.54349 14.5501 2.54349 10.213C2.54349 5.87596 6.06128 2.35817 10.3983 2.35817C14.7354 2.35817 18.2532 5.87596 18.2532 10.213C18.2532 14.5501 14.7354 18.0679 10.3983 18.0679Z" fill="#FF0000"/>
<path d="M14.0872 12.8864L11.0761 10.7094V5.48337C11.0761 5.39047 11.0001 5.31445 10.9072 5.31445H9.89157C9.79867 5.31445 9.72265 5.39047 9.72265 5.48337V11.2985C9.72265 11.3534 9.74799 11.4041 9.79233 11.4357L13.2848 13.9822C13.3608 14.0371 13.4664 14.0202 13.5213 13.9463L14.1252 13.1228C14.1801 13.0447 14.1632 12.9391 14.0872 12.8864Z" fill="#FF0000"/>
</svg>
